<svg width="25" height="11" viewBox="0 0 25 11" fill="none" xmlns="http://www.w3.org/2000/svg">
<rect width="25" height="11" fill=""/>
<g id="main">
<rect width="1440" height="2612" transform="translate(-732 -685)" fill=""/>
<g id="Group 395">
<g id="promo">
<g id="businessman-suit-shoot-arrow-target-way-with-dot-connect-line-circuit-concept-digital-transformation-business_31949-5476 (1) 2" clip-path="url(#clip0_0_1)">
<path id="Vector" d="M-368.994 144L229.798 -202.46C230.224 -202.708 230.709 -202.841 231.204 -202.846L390.53 -204.778C390.808 -204.783 391.078 -204.861 391.309 -205.003L426.671 -226.493C426.939 -226.654 427.223 -226.692 427.523 -226.606C429.532 -226.037 431.331 -225.984 432.922 -226.445C436.297 -227.411 435.831 -231.387 433.212 -232.949C429.981 -234.864 422.364 -235.556 423.65 -229.367C423.709 -229.082 423.615 -228.868 423.369 -228.723C412.302 -222.069 401.251 -215.383 390.216 -208.665C389.156 -208.021 386.737 -208.424 385.821 -208.408C336.54 -207.753 287.205 -207.15 237.817 -206.597C237.329 -206.591 237.297 -206.712 237.72 -206.959C259.816 -219.966 282.006 -232.833 304.29 -245.561C305.287 -246.13 306.352 -246.433 307.488 -246.471C358.146 -248.193 408.882 -249.913 459.695 -251.63C460.232 -251.646 460.758 -251.801 461.222 -252.081L473.925 -259.856C474.177 -260.011 474.447 -260.076 474.736 -260.049L518.712 -256.242C519.161 -256.205 519.609 -256.312 519.99 -256.548L574.218 -289.934C574.475 -290.09 574.745 -290.122 575.029 -290.031C577.207 -289.354 580.927 -289.419 582.14 -291.761C585.354 -297.999 567.243 -301.106 570.899 -292.63C570.941 -292.526 570.946 -292.41 570.912 -292.303C570.879 -292.196 570.809 -292.104 570.714 -292.043L518.816 -260.17C518.571 -260.018 518.284 -259.95 517.997 -259.976L480.136 -263.236C480.098 -263.238 480.061 -263.252 480.032 -263.276C480.002 -263.301 479.982 -263.334 479.973 -263.371C479.964 -263.408 479.967 -263.447 479.982 -263.482C479.997 -263.518 480.023 -263.547 480.056 -263.566L536.686 -297.999C536.943 -298.154 537.214 -298.189 537.498 -298.103C539.836 -297.403 543.653 -297.435 544.914 -299.963C548.064 -306.233 530.242 -308.824 533.585 -300.961C533.636 -300.842 533.642 -300.708 533.602 -300.584C533.563 -300.46 533.479 -300.354 533.368 -300.285C509.097 -285.48 484.799 -270.74 460.474 -256.065C459.542 -255.501 458.53 -255.201 457.437 -255.163C407.079 -253.51 356.716 -251.818 306.347 -250.084C305.169 -250.041 304.068 -249.725 303.045 -249.135C264.423 -226.775 225.328 -204.123 185.758 -181.179C185.602 -181.088 185.428 -181.033 185.247 -181.018C185.066 -181.002 184.884 -181.027 184.713 -181.09L176.815 -183.94C176.771 -183.957 176.732 -183.987 176.703 -184.025C176.675 -184.063 176.658 -184.109 176.654 -184.156C176.649 -184.204 176.658 -184.252 176.68 -184.295C176.701 -184.337 176.734 -184.373 176.775 -184.398L242.951 -223.789C243.335 -224.018 243.628 -224.377 243.779 -224.803L251.468 -246.471C251.546 -246.704 251.71 -246.899 251.926 -247.018L379.16 -317.895C378.48 -318.7 377.979 -319.784 377.658 -321.147L376.139 -320.374C375.802 -320.208 375.668 -320.307 375.737 -320.672L379.49 -340.529L395.391 -349.511L392.458 -352.143L376.541 -343.201C376.423 -343.135 376.32 -343.045 376.241 -342.937C376.162 -342.828 376.108 -342.704 376.083 -342.573L371.672 -318.628C371.564 -318.059 371.256 -317.632 370.748 -317.348L249.13 -249.642C248.83 -249.476 248.601 -249.206 248.487 -248.885L240.637 -226.984C240.546 -226.732 240.388 -226.539 240.163 -226.405L165.863 -182.314C165.75 -182.248 165.624 -182.209 165.494 -182.198C165.363 -182.186 165.231 -182.204 165.108 -182.249L156.125 -185.557C156.08 -185.573 156.041 -185.601 156.012 -185.638C155.984 -185.676 155.967 -185.721 155.963 -185.768C155.96 -185.815 155.97 -185.862 155.993 -185.904C156.016 -185.945 156.051 -185.978 156.093 -186L196.131 -208.738C196.226 -208.793 196.334 -208.826 196.445 -208.834C196.556 -208.843 196.668 -208.826 196.774 -208.786C201.33 -207.088 208.971 -210.694 202.591 -215.032C199.996 -216.803 191.029 -217.334 193.094 -211.965C193.156 -211.802 193.159 -211.623 193.101 -211.459C193.044 -211.295 192.93 -211.158 192.78 -211.072L163.308 -194.54C163.147 -194.451 162.968 -194.398 162.784 -194.384C162.6 -194.37 162.414 -194.396 162.24 -194.459L151.722 -198.331C151.671 -198.348 151.627 -198.38 151.595 -198.422C151.563 -198.464 151.544 -198.515 151.541 -198.569C151.538 -198.623 151.55 -198.677 151.576 -198.724C151.603 -198.772 151.642 -198.812 151.69 -198.838C166.79 -206.758 181.853 -214.678 196.878 -222.598C201.016 -224.787 213.173 -223.684 218.187 -223.58C218.482 -223.574 218.755 -223.655 219.007 -223.821L231.831 -232.16C232.098 -232.336 232.328 -232.564 232.507 -232.83C232.686 -233.097 232.811 -233.397 232.875 -233.713L238.821 -263.461C238.869 -263.708 239 -263.893 239.215 -264.017L314.462 -308.358C314.741 -308.524 315.03 -308.551 315.33 -308.438C319.211 -307.005 326.876 -309.911 321.148 -314.547C318.271 -316.865 309.433 -317.235 311.409 -311.255C311.5 -310.981 311.422 -310.772 311.176 -310.627C294.565 -300.926 283.547 -294.449 278.12 -291.198C276.361 -290.143 275.332 -289.749 273.146 -289.797C268.446 -289.902 256.659 -290.924 252.834 -288.743C238.339 -280.469 223.879 -272.291 209.453 -264.21C209.197 -264.065 208.972 -263.87 208.794 -263.636C208.616 -263.402 208.488 -263.134 208.417 -262.85L205.283 -250.406C205.248 -250.269 205.179 -250.144 205.082 -250.042C204.985 -249.94 204.863 -249.866 204.729 -249.827C203.708 -249.537 202.704 -249.505 201.844 -249.078C198.935 -247.638 199.586 -244.748 201.836 -243.106C204.064 -241.48 206.542 -241.08 209.268 -241.907C213.463 -243.179 211.92 -247.195 209.027 -248.724C208.918 -248.783 208.831 -248.878 208.781 -248.993C208.732 -249.108 208.722 -249.238 208.754 -249.36L211.743 -260.934C211.813 -261.208 211.971 -261.414 212.217 -261.554C226.112 -269.318 239.962 -277.136 253.766 -285.008C257.382 -287.069 264.838 -286.336 268.944 -286.119C268.976 -286.116 269.006 -286.103 269.031 -286.082C269.056 -286.061 269.073 -286.033 269.081 -286.003C269.089 -285.973 269.087 -285.941 269.076 -285.913C269.064 -285.884 269.043 -285.861 269.016 -285.845L235.977 -266.399C235.762 -266.276 235.631 -266.091 235.583 -265.844L229.597 -235.943C229.533 -235.629 229.408 -235.332 229.229 -235.068C229.049 -234.804 228.819 -234.579 228.552 -234.405L217.834 -227.475C217.608 -227.328 217.346 -227.25 217.078 -227.25C211.266 -227.245 205.462 -227.25 199.666 -227.266C198.515 -227.271 197.427 -227.009 196.404 -226.477C181.636 -218.82 166.897 -211.118 152.188 -203.369C151.957 -203.246 151.719 -203.23 151.473 -203.321L145.808 -205.47C145.363 -205.636 145.35 -205.835 145.768 -206.066L181.25 -225.391C181.431 -225.489 181.588 -225.626 181.711 -225.793C181.833 -225.96 181.917 -226.153 181.957 -226.357L188.369 -258.825C188.439 -259.163 188.621 -259.421 188.916 -259.598L321.083 -339.514C321.324 -339.659 321.584 -339.732 321.863 -339.732H341.548C341.988 -339.732 342.4 -339.842 342.786 -340.062L382.655 -362.848L380.502 -365.753C367.882 -358.622 355.288 -351.435 342.721 -344.191C339.435 -342.291 326.828 -343.346 322.514 -343.346C319.508 -343.354 317.644 -341.712 315.033 -340.134C271.917 -314.104 228.801 -288.051 185.686 -261.972C185.332 -261.763 185.118 -261.457 185.043 -261.055L178.743 -228.908C178.647 -228.409 178.374 -228.036 177.924 -227.789L124.113 -198.854C123.995 -198.791 123.864 -198.753 123.73 -198.743C123.596 -198.733 123.461 -198.752 123.334 -198.798L118.168 -200.689C118.125 -200.705 118.088 -200.733 118.062 -200.769C118.035 -200.806 118.019 -200.849 118.017 -200.894C118.014 -200.94 118.025 -200.985 118.047 -201.024C118.07 -201.063 118.103 -201.095 118.143 -201.116L152.461 -218.767C152.723 -218.901 152.889 -219.11 152.959 -219.394L162.794 -260.057C162.886 -260.438 163.123 -260.768 163.453 -260.974L264.79 -323.755C265.063 -323.926 265.286 -324.166 265.436 -324.45C265.586 -324.734 265.657 -325.053 265.642 -325.373L264.388 -353.246C264.378 -353.535 264.495 -353.753 264.742 -353.898L356.172 -406.995C356.429 -407.146 356.702 -407.178 356.992 -407.092C359.316 -406.4 362.22 -406.499 364.512 -407.39L363.918 -413.032C360.977 -415.052 351.777 -416.179 353.408 -410.207C353.494 -409.88 353.389 -409.63 353.095 -409.458L323.679 -392.395C323.32 -392.186 323.191 -392.282 323.293 -392.685L332.589 -429.427C332.63 -429.59 332.703 -429.742 332.806 -429.875C332.908 -430.008 333.037 -430.119 333.184 -430.2L365.187 -448.229C365.407 -448.354 365.663 -448.405 365.919 -448.374L369.714 -447.835C373 -454 369.714 -447.835 373 -454C369.979 -456.407 360.27 -457.469 362.455 -451.36C362.547 -451.113 362.477 -450.926 362.247 -450.797L330.404 -432.872C330.152 -432.73 329.932 -432.538 329.757 -432.308C329.582 -432.078 329.455 -431.816 329.383 -431.536L318.874 -390.077C318.825 -389.89 318.741 -389.716 318.625 -389.562C318.509 -389.409 318.364 -389.28 318.199 -389.183L286.139 -370.615C286.122 -370.606 286.103 -370.603 286.085 -370.605C286.066 -370.607 286.048 -370.614 286.034 -370.626C286.019 -370.638 286.009 -370.654 286.003 -370.672C285.997 -370.69 285.997 -370.709 286.003 -370.728C292.72 -391.687 299.421 -412.654 306.106 -433.629C306.628 -435.271 306.444 -435.818 308.115 -436.671C331.438 -448.637 354.747 -460.635 378.043 -472.665C378.29 -472.789 378.539 -472.799 378.791 -472.698C381.756 -471.514 389.839 -472.907 386.102 -477.43C383.756 -480.274 380.746 -481.068 377.071 -479.813C375.212 -479.179 374.559 -477.803 375.111 -475.684C375.17 -475.448 375.092 -475.273 374.878 -475.16L304.845 -439.126C304.536 -438.968 304.262 -438.749 304.037 -438.482C303.812 -438.216 303.642 -437.907 303.535 -437.573L281.414 -368.482C281.254 -367.97 280.907 -367.538 280.442 -367.275L260.869 -355.942C260.676 -355.829 260.585 -355.658 260.596 -355.427L261.873 -327.296C261.885 -327.001 261.819 -326.707 261.68 -326.445C261.542 -326.184 261.337 -325.964 261.086 -325.807L160.448 -263.437C159.994 -263.153 159.669 -262.703 159.54 -262.182L149.801 -221.994C149.732 -221.715 149.571 -221.509 149.319 -221.374C137.947 -215.295 128.377 -210.396 120.61 -206.677C-31.3958 -133.89 -335.4 11.7505 -335.4 11.7505C-366.383 26.6407 -335.4 11.7505 -366.383 26.6407C-415.01 49.8641 -562.437 120.701 -611 144" stroke="#0C2836" stroke-width="1.5"/>
</g>
<g id="services">
<g id="Frame 383">
<g id="arrow" clip-path="url(#clip1_0_1)">
<path id="Vector_2" d="M0.567239 10.2474C1.03679 9.47848 1.51024 8.73366 1.96968 7.97874C2.42912 7.22381 2.87846 6.48289 3.3379 5.72797C3.348 5.71396 3.35811 5.69995 3.36822 5.68594C3.64732 5.26955 3.63261 5.40804 3.36553 4.98104C2.47242 3.59113 1.57932 2.20123 0.686214 0.811324C0.640282 0.756884 0.604458 0.688435 0.568634 0.619985C0.976324 0.61589 1.3739 0.625805 1.75748 0.625613C3.61309 0.622348 5.4586 0.633092 7.31422 0.629828C8.31633 0.628546 9.17624 0.972009 9.92425 1.61818C10.2683 1.909 10.5315 2.31189 10.811 2.66264C11.1543 3.10206 11.4937 3.51736 11.827 3.97079C11.9048 4.06956 11.985 4.10609 12.1095 4.1107C13.7558 4.19079 15.3921 4.28489 17.0244 4.35487C19.4076 4.4766 21.7908 4.59834 24.174 4.72007C24.6237 4.7463 24.9475 5.06513 24.9275 5.47672C24.9215 5.89842 24.6128 6.20824 24.1709 6.23024C22.2344 6.34559 20.3119 6.47104 18.3895 6.59649C16.3184 6.72123 14.2613 6.85609 12.1903 6.98083C11.9071 6.98954 11.7157 7.10711 11.5641 7.31726C11.166 7.83952 10.7679 8.36178 10.3659 8.85993C9.58835 9.79007 8.59193 10.2854 7.36886 10.2977C5.69998 10.3079 4.0412 10.304 2.36841 10.2901C1.81212 10.2935 1.27994 10.293 0.723647 10.2964C0.67151 10.28 0.623278 10.2878 0.567239 10.2474Z" fill="#FFA239"/>
</g>
</g>
</g>
</g>
</g>
</g>
<defs>
<clipPath id="clip0_0_1">
<rect width="1196" height="628" fill="white" transform="translate(-612 -483)"/>
</clipPath>
<clipPath id="clip1_0_1">
<rect width="25" height="11" fill="white"/>
</clipPath>
</defs>
</svg>
